# xmcd
#
# Track frame offsets: 
#        150
#        17982
#        33357
#
# Disc length: 722 seconds
#
# Revision: 0
# Processed by: cddbd v1.5.2PL0 Copyright (c) Steve Scherf et al.
# Submitted via: ExactAudioCopy v0.95a5
#
DISCID=1c02d003
DTITLE=Evolver - Radio
DYEAR=1997
DGENRE=Progressive Rock
TTITLE0=Radio
TTITLE1=Kicks
TTITLE2=On Your Way
EXTD=
EXTT0=
EXTT1=
EXTT2=
PLAYORDER=
